<mxfile host="Electron" modified="2023-09-01T13:54:57.644Z" agent="Mozilla/5.0 (Windows NT 10.0; Win64; x64) AppleWebKit/537.36 (KHTML, like Gecko) draw.io/21.6.5 Chrome/114.0.5735.243 Electron/25.3.1 Safari/537.36" etag="XfsWsyXGI7uFtm0VoFEn" version="21.6.5" type="device">
  <diagram name="Page-1" id="bga8NUDn6YGegZzXz5rn">
    <mxGraphModel dx="742" dy="760" grid="1" gridSize="10" guides="1" tooltips="1" connect="1" arrows="1" fold="1" page="1" pageScale="1" pageWidth="1169" pageHeight="827" math="0" shadow="0">
      <root>
        <mxCell id="0" />
        <mxCell id="1" parent="0" />
        <mxCell id="8k84Dx7fEanNe5nXLFBC-1" value="&lt;h1&gt;Singleton&lt;/h1&gt;&lt;p&gt;Диаграмма классов паттерна &quot;Одиночка&quot;&lt;/p&gt;" style="text;html=1;strokeColor=none;fillColor=none;spacing=5;spacingTop=-20;whiteSpace=wrap;overflow=hidden;rounded=0;" vertex="1" parent="1">
          <mxGeometry x="60" y="30" width="250" height="90" as="geometry" />
        </mxCell>
        <mxCell id="8k84Dx7fEanNe5nXLFBC-2" value="Singleton" style="swimlane;fontStyle=1;align=center;verticalAlign=top;childLayout=stackLayout;horizontal=1;startSize=26;horizontalStack=0;resizeParent=1;resizeParentMax=0;resizeLast=0;collapsible=1;marginBottom=0;whiteSpace=wrap;html=1;" vertex="1" parent="1">
          <mxGeometry x="80" y="120" width="200" height="164" as="geometry" />
        </mxCell>
        <mxCell id="8k84Dx7fEanNe5nXLFBC-3" value="- static uniqueInstance: Singleton" style="text;strokeColor=none;fillColor=none;align=left;verticalAlign=top;spacingLeft=4;spacingRight=4;overflow=hidden;rotatable=0;points=[[0,0.5],[1,0.5]];portConstraint=eastwest;whiteSpace=wrap;html=1;" vertex="1" parent="8k84Dx7fEanNe5nXLFBC-2">
          <mxGeometry y="26" width="200" height="26" as="geometry" />
        </mxCell>
        <mxCell id="8k84Dx7fEanNe5nXLFBC-6" value="// другие данные Singleton..." style="text;strokeColor=none;fillColor=none;align=left;verticalAlign=top;spacingLeft=4;spacingRight=4;overflow=hidden;rotatable=0;points=[[0,0.5],[1,0.5]];portConstraint=eastwest;whiteSpace=wrap;html=1;" vertex="1" parent="8k84Dx7fEanNe5nXLFBC-2">
          <mxGeometry y="52" width="200" height="26" as="geometry" />
        </mxCell>
        <mxCell id="8k84Dx7fEanNe5nXLFBC-4" value="" style="line;strokeWidth=1;fillColor=none;align=left;verticalAlign=middle;spacingTop=-1;spacingLeft=3;spacingRight=3;rotatable=0;labelPosition=right;points=[];portConstraint=eastwest;strokeColor=inherit;" vertex="1" parent="8k84Dx7fEanNe5nXLFBC-2">
          <mxGeometry y="78" width="200" height="8" as="geometry" />
        </mxCell>
        <mxCell id="8k84Dx7fEanNe5nXLFBC-8" value="- Singleton();" style="text;strokeColor=none;fillColor=none;align=left;verticalAlign=top;spacingLeft=4;spacingRight=4;overflow=hidden;rotatable=0;points=[[0,0.5],[1,0.5]];portConstraint=eastwest;whiteSpace=wrap;html=1;" vertex="1" parent="8k84Dx7fEanNe5nXLFBC-2">
          <mxGeometry y="86" width="200" height="26" as="geometry" />
        </mxCell>
        <mxCell id="8k84Dx7fEanNe5nXLFBC-5" value="+ static getInstance(): Singleton;" style="text;strokeColor=none;fillColor=none;align=left;verticalAlign=top;spacingLeft=4;spacingRight=4;overflow=hidden;rotatable=0;points=[[0,0.5],[1,0.5]];portConstraint=eastwest;whiteSpace=wrap;html=1;" vertex="1" parent="8k84Dx7fEanNe5nXLFBC-2">
          <mxGeometry y="112" width="200" height="26" as="geometry" />
        </mxCell>
        <mxCell id="8k84Dx7fEanNe5nXLFBC-7" value="// другие методы Singleton" style="text;strokeColor=none;fillColor=none;align=left;verticalAlign=top;spacingLeft=4;spacingRight=4;overflow=hidden;rotatable=0;points=[[0,0.5],[1,0.5]];portConstraint=eastwest;whiteSpace=wrap;html=1;" vertex="1" parent="8k84Dx7fEanNe5nXLFBC-2">
          <mxGeometry y="138" width="200" height="26" as="geometry" />
        </mxCell>
        <mxCell id="8k84Dx7fEanNe5nXLFBC-9" value="if (uniqueInstance == null) {&lt;br&gt;&lt;span style=&quot;white-space: pre;&quot;&gt;&#x9;&lt;/span&gt;uniqueInstance = new Singleton();&lt;br&gt;}&lt;br&gt;return uniqueInstance;" style="shape=note;size=20;whiteSpace=wrap;html=1;align=left;spacingLeft=5;" vertex="1" parent="1">
          <mxGeometry x="320" y="240" width="240" height="80" as="geometry" />
        </mxCell>
        <mxCell id="8k84Dx7fEanNe5nXLFBC-11" value="" style="endArrow=none;dashed=1;html=1;rounded=0;entryX=0;entryY=0.5;entryDx=0;entryDy=0;entryPerimeter=0;startArrow=oval;startFill=0;exitX=0.95;exitY=0.692;exitDx=0;exitDy=0;exitPerimeter=0;" edge="1" parent="1" source="8k84Dx7fEanNe5nXLFBC-5" target="8k84Dx7fEanNe5nXLFBC-9">
          <mxGeometry width="50" height="50" relative="1" as="geometry">
            <mxPoint x="290" y="250" as="sourcePoint" />
            <mxPoint x="390" y="360" as="targetPoint" />
          </mxGeometry>
        </mxCell>
      </root>
    </mxGraphModel>
  </diagram>
</mxfile>
